<svg width="25" height="20" viewBox="0 0 25 20" fill="none" xmlns="http://www.w3.org/2000/svg">
<path fill-rule="evenodd" clip-rule="evenodd" d="M12.5211 19C12.4811 19 12.0241 18.71 11.5051 18.357L9.77505 17.177C9.34205 16.88 8.65505 16.402 8.24705 16.114C7.77562 15.7797 7.30825 15.4396 6.84505 15.094C6.48105 14.82 5.95505 14.406 5.67705 14.175C5.28608 13.84 4.90781 13.4904 4.54305 13.127C4.21428 12.8002 3.90062 12.4585 3.60305 12.103C3.40573 11.849 3.21695 11.5886 3.03705 11.322C2.89705 11.11 2.66705 10.716 2.52705 10.446C2.38605 10.176 2.18305 9.735 2.07705 9.465C1.96621 9.18467 1.86942 8.89898 1.78705 8.609C1.7223 8.34639 1.66693 8.08155 1.62105 7.815C1.56576 7.44703 1.54201 7.07501 1.55005 6.703C1.55005 6.195 1.57005 5.916 1.62405 5.627C1.67711 5.3628 1.7459 5.102 1.83005 4.846C1.90405 4.631 2.05005 4.291 2.15605 4.09C2.26105 3.888 2.44805 3.583 2.57105 3.41C2.69505 3.238 2.92705 2.963 3.08805 2.799C3.24805 2.635 3.53805 2.382 3.73005 2.237C3.92305 2.092 4.30405 1.86 4.57605 1.72C4.85005 1.58 5.28005 1.398 5.53005 1.314C5.81994 1.22042 6.11555 1.1456 6.41505 1.09C6.71005 1.04 7.04505 1.02 7.50505 1.02C7.98905 1.02 8.27505 1.04 8.55805 1.093C8.77205 1.133 9.10605 1.216 9.29805 1.277C9.49205 1.338 9.81305 1.468 10.0141 1.566C10.2141 1.664 10.5381 1.853 10.7341 1.986C10.9291 2.12 11.2561 2.396 11.4611 2.601C11.7041 2.844 11.9281 3.12 12.1111 3.401C12.2661 3.638 12.4241 3.874 12.4651 3.926C12.5381 4.021 12.538 4.021 12.701 3.741C12.8216 3.54053 12.9518 3.34597 13.0911 3.158C13.4372 2.71216 13.8453 2.31817 14.3031 1.988C14.4631 1.88 14.7591 1.708 14.9591 1.608C15.1591 1.507 15.5021 1.364 15.7221 1.29C16.0112 1.19941 16.3058 1.12726 16.6041 1.074C17.0101 1.004 17.1871 0.993998 17.7281 1.012C18.1062 1.01571 18.483 1.05691 18.8531 1.135C19.1181 1.191 19.5031 1.3 19.7101 1.376C19.9161 1.453 20.2701 1.612 20.4991 1.73C20.7271 1.849 21.097 2.083 21.319 2.25C21.543 2.419 21.857 2.696 22.017 2.867C22.177 3.037 22.417 3.338 22.552 3.535C22.687 3.732 22.8731 4.055 22.9661 4.252C23.0601 4.45 23.1881 4.77 23.2521 4.963C23.3161 5.156 23.4001 5.507 23.4391 5.743C23.4851 6.02 23.5111 6.372 23.5111 6.739C23.5111 7.158 23.487 7.442 23.42 7.828C23.367 8.12839 23.2996 8.42606 23.2181 8.72C23.1364 8.98263 23.045 9.24215 22.944 9.498C22.854 9.723 22.6671 10.129 22.5301 10.402C22.3921 10.675 22.1331 11.118 21.9541 11.386C21.7761 11.655 21.486 12.05 21.309 12.265C21.133 12.479 20.7591 12.884 20.4781 13.163C20.1971 13.442 19.7391 13.861 19.4611 14.095C19.1821 14.328 18.5871 14.796 18.1371 15.135C17.6871 15.473 16.943 16.013 16.482 16.335C16.022 16.657 14.9581 17.389 14.1191 17.96C13.2791 18.532 12.5611 19 12.5211 19Z" fill="white" stroke="#26686E" stroke-width="2"/>
</svg>
